<?xml version="1.0" encoding="UTF-8" standalone="no"?><svg xmlns="http://www.w3.org/2000/svg" xmlns:xlink= "http://www.w3.org/1999/xlink" width="1229" height="540" aria-label="A chart." style="overflow: hidden;"><defs id="_ABSTRACT_RENDERER_ID_32"><clipPath id="_ABSTRACT_RENDERER_ID_33"><rect x="190" y="103" width="850" height="334"></rect></clipPath></defs><rect x="0" y="0" width="1229" height="540" stroke="none" stroke-width="0" fill="#ffffff"></rect><g><text text-anchor="start" x="190" y="75.25" font-family="Arial" font-size="25" font-weight="bold" stroke="none" stroke-width="0" fill="#000000">Distribución del error comparando con etiquetas en el lado izquierdo</text><rect x="190" y="54" width="850" height="25" stroke="none" stroke-width="0" fill-opacity="0" fill="#ffffff"></rect></g><g><rect x="190" y="103" width="850" height="334" stroke="none" stroke-width="0" fill="#f3f2f1"></rect><g clip-path="url(https://www.statskingdom.com/histogram-maker.html#_ABSTRACT_RENDERER_ID_33)"><g><rect x="190" y="436" width="850" height="1" stroke="none" stroke-width="0" fill="#cccccc"></rect><rect x="190" y="381" width="850" height="1" stroke="none" stroke-width="0" fill="#cccccc"></rect><rect x="190" y="325" width="850" height="1" stroke="none" stroke-width="0" fill="#cccccc"></rect><rect x="190" y="270" width="850" height="1" stroke="none" stroke-width="0" fill="#cccccc"></rect><rect x="190" y="214" width="850" height="1" stroke="none" stroke-width="0" fill="#cccccc"></rect><rect x="190" y="159" width="850" height="1" stroke="none" stroke-width="0" fill="#cccccc"></rect><rect x="190" y="103" width="850" height="1" stroke="none" stroke-width="0" fill="#cccccc"></rect><rect x="190" y="408" width="850" height="1" stroke="none" stroke-width="0" fill="#e3e3e2"></rect><rect x="190" y="353" width="850" height="1" stroke="none" stroke-width="0" fill="#e3e3e2"></rect><rect x="190" y="297" width="850" height="1" stroke="none" stroke-width="0" fill="#e3e3e2"></rect><rect x="190" y="242" width="850" height="1" stroke="none" stroke-width="0" fill="#e3e3e2"></rect><rect x="190" y="186" width="850" height="1" stroke="none" stroke-width="0" fill="#e3e3e2"></rect><rect x="190" y="131" width="850" height="1" stroke="none" stroke-width="0" fill="#e3e3e2"></rect></g><g><rect x="276.5" y="426" width="83" height="10" stroke="none" stroke-width="0" fill="#1f77b4"></rect><rect x="276.5" y="415" width="83" height="10" stroke="none" stroke-width="0" fill="#1f77b4"></rect><rect x="361.5" y="426" width="83" height="10" stroke="none" stroke-width="0" fill="#1f77b4"></rect><rect x="361.5" y="415" width="83" height="10" stroke="none" stroke-width="0" fill="#1f77b4"></rect><rect x="446.5" y="426" width="83" height="10" stroke="none" stroke-width="0" fill="#1f77b4"></rect><rect x="446.5" y="415" width="83" height="10" stroke="none" stroke-width="0" fill="#1f77b4"></rect><rect x="446.5" y="404" width="83" height="10" stroke="none" stroke-width="0" fill="#1f77b4"></rect><rect x="446.5" y="393" width="83" height="10" stroke="none" stroke-width="0" fill="#1f77b4"></rect><rect x="446.5" y="382" width="83" height="10" stroke="none" stroke-width="0" fill="#1f77b4"></rect><rect x="446.5" y="370" width="83" height="11" stroke="none" stroke-width="0" fill="#1f77b4"></rect><rect x="531.5" y="426" width="83" height="10" stroke="none" stroke-width="0" fill="#1f77b4"></rect><rect x="531.5" y="415" width="83" height="10" stroke="none" stroke-width="0" fill="#1f77b4"></rect><rect x="531.5" y="404" width="83" height="10" stroke="none" stroke-width="0" fill="#1f77b4"></rect><rect x="531.5" y="393" width="83" height="10" stroke="none" stroke-width="0" fill="#1f77b4"></rect><rect x="531.5" y="382" width="83" height="10" stroke="none" stroke-width="0" fill="#1f77b4"></rect><rect x="531.5" y="370" width="83" height="11" stroke="none" stroke-width="0" fill="#1f77b4"></rect><rect x="531.5" y="359" width="83" height="10" stroke="none" stroke-width="0" fill="#1f77b4"></rect><rect x="531.5" y="348" width="83" height="10" stroke="none" stroke-width="0" fill="#1f77b4"></rect><rect x="616.5" y="426" width="82" height="10" stroke="none" stroke-width="0" fill="#1f77b4"></rect><rect x="616.5" y="415" width="82" height="10" stroke="none" stroke-width="0" fill="#1f77b4"></rect><rect x="616.5" y="404" width="82" height="10" stroke="none" stroke-width="0" fill="#1f77b4"></rect><rect x="616.5" y="393" width="82" height="10" stroke="none" stroke-width="0" fill="#1f77b4"></rect><rect x="616.5" y="382" width="82" height="10" stroke="none" stroke-width="0" fill="#1f77b4"></rect><rect x="616.5" y="370" width="82" height="11" stroke="none" stroke-width="0" fill="#1f77b4"></rect><rect x="616.5" y="359" width="82" height="10" stroke="none" stroke-width="0" fill="#1f77b4"></rect><rect x="616.5" y="348" width="82" height="10" stroke="none" stroke-width="0" fill="#1f77b4"></rect><rect x="616.5" y="337" width="82" height="10" stroke="none" stroke-width="0" fill="#1f77b4"></rect><rect x="616.5" y="326" width="82" height="10" stroke="none" stroke-width="0" fill="#1f77b4"></rect><rect x="616.5" y="315" width="82" height="10" stroke="none" stroke-width="0" fill="#1f77b4"></rect><rect x="616.5" y="304" width="82" height="10" stroke="none" stroke-width="0" fill="#1f77b4"></rect><rect x="616.5" y="293" width="82" height="10" stroke="none" stroke-width="0" fill="#1f77b4"></rect><rect x="616.5" y="282" width="82" height="10" stroke="none" stroke-width="0" fill="#1f77b4"></rect><rect x="616.5" y="271" width="82" height="10" stroke="none" stroke-width="0" fill="#1f77b4"></rect><rect x="616.5" y="259" width="82" height="11" stroke="none" stroke-width="0" fill="#1f77b4"></rect><rect x="616.5" y="248" width="82" height="10" stroke="none" stroke-width="0" fill="#1f77b4"></rect><rect x="616.5" y="237" width="82" height="10" stroke="none" stroke-width="0" fill="#1f77b4"></rect><rect x="616.5" y="226" width="82" height="10" stroke="none" stroke-width="0" fill="#1f77b4"></rect><rect x="616.5" y="215" width="82" height="10" stroke="none" stroke-width="0" fill="#1f77b4"></rect><rect x="616.5" y="204" width="82" height="10" stroke="none" stroke-width="0" fill="#1f77b4"></rect><rect x="616.5" y="193" width="82" height="10" stroke="none" stroke-width="0" fill="#1f77b4"></rect><rect x="616.5" y="182" width="82" height="10" stroke="none" stroke-width="0" fill="#1f77b4"></rect><rect x="616.5" y="171" width="82" height="10" stroke="none" stroke-width="0" fill="#1f77b4"></rect><rect x="616.5" y="160" width="82" height="10" stroke="none" stroke-width="0" fill="#1f77b4"></rect><rect x="616.5" y="148" width="82" height="11" stroke="none" stroke-width="0" fill="#1f77b4"></rect><rect x="616.5" y="137" width="82" height="10" stroke="none" stroke-width="0" fill="#1f77b4"></rect><rect x="700.5" y="426" width="83" height="10" stroke="none" stroke-width="0" fill="#1f77b4"></rect><rect x="700.5" y="415" width="83" height="10" stroke="none" stroke-width="0" fill="#1f77b4"></rect><rect x="700.5" y="404" width="83" height="10" stroke="none" stroke-width="0" fill="#1f77b4"></rect><rect x="700.5" y="393" width="83" height="10" stroke="none" stroke-width="0" fill="#1f77b4"></rect><rect x="700.5" y="382" width="83" height="10" stroke="none" stroke-width="0" fill="#1f77b4"></rect><rect x="700.5" y="370" width="83" height="11" stroke="none" stroke-width="0" fill="#1f77b4"></rect><rect x="700.5" y="359" width="83" height="10" stroke="none" stroke-width="0" fill="#1f77b4"></rect><rect x="700.5" y="348" width="83" height="10" stroke="none" stroke-width="0" fill="#1f77b4"></rect><rect x="700.5" y="337" width="83" height="10" stroke="none" stroke-width="0" fill="#1f77b4"></rect><rect x="700.5" y="326" width="83" height="10" stroke="none" stroke-width="0" fill="#1f77b4"></rect><rect x="785.5" y="426" width="83" height="10" stroke="none" stroke-width="0" fill="#1f77b4"></rect><rect x="785.5" y="415" width="83" height="10" stroke="none" stroke-width="0" fill="#1f77b4"></rect><rect x="785.5" y="404" width="83" height="10" stroke="none" stroke-width="0" fill="#1f77b4"></rect><rect x="785.5" y="393" width="83" height="10" stroke="none" stroke-width="0" fill="#1f77b4"></rect><rect x="785.5" y="382" width="83" height="10" stroke="none" stroke-width="0" fill="#1f77b4"></rect><rect x="785.5" y="370" width="83" height="11" stroke="none" stroke-width="0" fill="#1f77b4"></rect><rect x="785.5" y="359" width="83" height="10" stroke="none" stroke-width="0" fill="#1f77b4"></rect><rect x="870.5" y="426" width="83" height="10" stroke="none" stroke-width="0" fill="#1f77b4"></rect></g><g><rect x="190" y="436" width="850" height="1" stroke="none" stroke-width="0" fill="#333333"></rect></g></g><g></g><g><g><text text-anchor="middle" x="190.5" y="458.75" font-family="Arial" font-size="15" stroke="none" stroke-width="0" fill="#444444">-1.0</text></g><g><text text-anchor="middle" x="275.4" y="458.75" font-family="Arial" font-size="15" stroke="none" stroke-width="0" fill="#444444">-0.8</text></g><g><text text-anchor="middle" x="360.3" y="458.75" font-family="Arial" font-size="15" stroke="none" stroke-width="0" fill="#444444">-0.6</text></g><g><text text-anchor="middle" x="445.2" y="458.75" font-family="Arial" font-size="15" stroke="none" stroke-width="0" fill="#444444">-0.4</text></g><g><text text-anchor="middle" x="530.1" y="458.75" font-family="Arial" font-size="15" stroke="none" stroke-width="0" fill="#444444">-0.2</text></g><g><text text-anchor="middle" x="615" y="458.75" font-family="Arial" font-size="15" stroke="none" stroke-width="0" fill="#444444">0.0</text></g><g><text text-anchor="middle" x="699.9" y="458.75" font-family="Arial" font-size="15" stroke="none" stroke-width="0" fill="#444444">0.2</text></g><g><text text-anchor="middle" x="784.8" y="458.75" font-family="Arial" font-size="15" stroke="none" stroke-width="0" fill="#444444">0.4</text></g><g><text text-anchor="middle" x="869.7" y="458.75" font-family="Arial" font-size="15" stroke="none" stroke-width="0" fill="#444444">0.6</text></g><g><text text-anchor="middle" x="954.6" y="458.75" font-family="Arial" font-size="15" stroke="none" stroke-width="0" fill="#444444">0.8</text></g><g><text text-anchor="middle" x="1039.5" y="458.75" font-family="Arial" font-size="15" stroke="none" stroke-width="0" fill="#444444">1.0</text></g><g><text text-anchor="end" x="175" y="441.75" font-family="Arial" font-size="15" stroke="none" stroke-width="0" fill="#444444">0</text></g><g><text text-anchor="end" x="175" y="386.25" font-family="Arial" font-size="15" stroke="none" stroke-width="0" fill="#444444">5</text></g><g><text text-anchor="end" x="175" y="330.75" font-family="Arial" font-size="15" stroke="none" stroke-width="0" fill="#444444">10</text></g><g><text text-anchor="end" x="175" y="275.25" font-family="Arial" font-size="15" stroke="none" stroke-width="0" fill="#444444">15</text></g><g><text text-anchor="end" x="175" y="219.75" font-family="Arial" font-size="15" stroke="none" stroke-width="0" fill="#444444">20</text></g><g><text text-anchor="end" x="175" y="164.25" font-family="Arial" font-size="15" stroke="none" stroke-width="0" fill="#444444">25</text></g><g><text text-anchor="end" x="175" y="108.75" font-family="Arial" font-size="15" stroke="none" stroke-width="0" fill="#444444">30</text></g></g></g><g><g><text text-anchor="middle" x="615" y="505.75" font-family="Arial" font-size="15" font-style="italic" stroke="none" stroke-width="0" fill="#222222">Grado de error</text><rect x="190" y="493" width="850" height="15" stroke="none" stroke-width="0" fill-opacity="0" fill="#ffffff"></rect></g><g><text text-anchor="middle" x="84.25" y="270" font-family="Arial" font-size="15" font-style="italic" transform="rotate(-90 84.25 270)" stroke="none" stroke-width="0" fill="#222222">Frecuencia</text><path d="M71.49999999999999,437L71.50000000000001,103L86.50000000000001,103L86.49999999999999,437Z" stroke="none" stroke-width="0" fill-opacity="0" fill="#ffffff"></path></g></g><g></g></svg>